<svg width="40" height="42" viewBox="0 0 40 42" fill="none" xmlns="http://www.w3.org/2000/svg">
<path fill-rule="evenodd" clip-rule="evenodd" d="M36.9915 25.4567C34.2557 25.9544 32.4318 27.0359 30.9222 29.0544C30.8509 29.1505 30.7456 29.2159 30.6278 29.2371C30.51 29.2582 30.3886 29.2337 30.2883 29.1684C29.4542 28.6123 28.4839 27.8505 27.4357 27.5586C27.367 27.539 27.3037 27.504 27.2506 27.4563C27.1974 27.4085 27.1559 27.3493 27.1291 27.2831C27.1023 27.2169 27.0909 27.1454 27.0959 27.0742C27.1008 27.0029 27.122 26.9337 27.1577 26.8719C27.5079 26.2777 27.7763 25.6389 27.9556 24.9729C27.964 24.9214 27.964 24.8688 27.9556 24.8172C27.9535 24.6676 27.9031 24.5226 27.8119 24.4039C27.7207 24.2851 27.5937 24.199 27.4496 24.1583C27.3681 24.1204 27.2774 24.1066 27.1883 24.1184C27.0991 24.1302 27.0152 24.1672 26.9464 24.225C26.3486 24.7311 26.3069 25.7764 25.9121 26.4076C25.8998 26.4297 25.8849 26.4502 25.8676 26.4687C25.0975 27.3501 23.674 27.4057 22.5925 28.0312C22.5231 28.0716 22.4446 28.0936 22.3643 28.0951C22.2841 28.0967 22.2048 28.0779 22.1338 28.0403C22.0629 28.0028 22.0027 27.9478 21.9589 27.8805C21.9151 27.8133 21.8892 27.736 21.8835 27.6559C21.4109 20.6468 28.0001 21.898 32.2261 24.5142L32.2817 24.5448C33.1578 24.8533 34.1006 24.9214 35.0119 24.7422C40.1721 23.2436 40.5725 16.938 35.4262 14.6025C35.3694 14.5766 35.3183 14.5395 35.276 14.4935C35.2336 14.4476 35.2009 14.3936 35.1797 14.3349C35.1584 14.2761 35.1491 14.2137 35.1523 14.1513C35.1555 14.0889 35.1711 14.0277 35.1982 13.9714C36.7969 10.7074 34.8173 5.43321 30.405 5.18854C30.2873 5.18312 30.1759 5.13393 30.0926 5.05061C30.0092 4.96729 29.96 4.85585 29.9546 4.73814C29.8406 0.712312 18.0273 -0.969751 22.8121 3.64828L22.8344 3.67052C23.8853 4.82433 24.4274 5.77796 26.2152 6.25617C29.304 7.09025 31.1863 5.79186 33.2048 7.99384L33.2242 8.01608C34.2335 8.95303 35.1704 12.9372 33.569 13.8241C33.5048 13.8601 33.433 13.8806 33.3595 13.8838C33.2859 13.887 33.2126 13.8729 33.1455 13.8426C33.0784 13.8123 33.0194 13.7666 32.9732 13.7093C32.927 13.652 32.8949 13.5847 32.8795 13.5127C32.4457 11.4859 30.2688 8.41922 28.4477 7.86594C28.3512 7.83692 28.2478 7.83992 28.1531 7.8745C28.0584 7.90908 27.9774 7.97337 27.9222 8.05778C26.8713 9.65644 27.5525 12.7592 28.7091 13.7295C31.4198 16.2679 36.124 14.4607 37.6059 18.6617C37.8228 19.3574 37.8259 20.1022 37.6147 20.7996C37.4036 21.4971 36.9879 22.115 36.4215 22.5736C36.3433 22.6371 36.2467 22.6737 36.146 22.6781C36.0454 22.6826 35.946 22.6545 35.8625 22.5981C35.779 22.5417 35.7158 22.46 35.6823 22.3649C35.6488 22.2699 35.6467 22.1666 35.6764 22.0703C35.9155 21.2963 35.8891 20.4645 35.6013 19.7071C34.5504 17.0603 32.1344 17.5468 28.9565 17.6803C28.8681 17.685 28.7802 17.6642 28.7033 17.6203C28.6264 17.5764 28.5637 17.5114 28.5228 17.4328C26.9686 14.533 26.0539 14.3495 23.193 12.7676C23.1178 12.7249 23.0319 12.7046 22.9456 12.7092C21.3692 12.7842 22.6675 16.0455 22.9289 16.5793C24.9696 21.467 32.0732 17.0798 34.264 19.7822C34.3044 19.8324 34.3346 19.89 34.353 19.9518C35.1454 22.7654 32.8711 24.0276 30.5969 22.176C30.5746 22.1568 30.5504 22.14 30.5246 22.1259C28.9343 21.2502 26.9631 20.9304 24.8445 21.1306C24.7811 21.1371 24.7171 21.1306 24.6564 21.1114C24.5956 21.0923 24.5394 21.0609 24.4913 21.0192C24.4431 20.9776 24.4039 20.9265 24.3762 20.8692C24.3485 20.8118 24.3328 20.7494 24.3301 20.6858C24.2801 19.3318 23.4766 17.4718 22.5508 18.4004C22.4869 18.466 22.4434 18.5487 22.4256 18.6385C22.4078 18.7284 22.4165 18.8214 22.4507 18.9064C23.7435 22.1176 22.5702 21.5977 20.9716 24.2806C20.9343 24.3412 20.9123 24.4099 20.9076 24.4808C20.5518 28.9293 19.6648 36.714 22.345 39.536C24.0605 41.2292 28.2309 41.9409 30.0881 39.8335C30.1389 39.777 30.2026 39.7336 30.2737 39.707C30.3449 39.6804 30.4214 39.6713 30.4968 39.6806C34.1111 40.1615 36.3604 36.6223 36.3937 33.0691C36.3956 32.9605 36.3597 32.8546 36.2923 32.7694C36.2249 32.6843 36.1301 32.6251 36.024 32.602C35.0759 32.4213 32.835 33.6696 32.1316 33.9588L32.0815 33.981C30.8971 34.626 30.2076 36.1385 29.6933 37.4536C29.6762 37.4981 29.6659 37.545 29.6627 37.5926C29.4764 39.9864 26.2096 40.3117 24.2384 39.3858C24.1458 39.3406 24.0705 39.2662 24.024 39.1742C23.9776 39.0822 23.9625 38.9775 23.9811 38.8761C23.9997 38.7746 24.0509 38.6821 24.127 38.6125C24.203 38.5429 24.2998 38.5001 24.4024 38.4906C26.4876 38.2904 28.3893 36.7474 28.8731 35.1348C29.4013 33.3777 27.28 30.9922 25.8871 30.6669C25.7972 30.6463 25.7032 30.6524 25.6168 30.6845C25.5303 30.7166 25.4552 30.7733 25.4005 30.8476C24.458 32.1544 25.0141 35.018 25.7064 36.2247C25.7642 36.324 25.7831 36.4412 25.7595 36.5537C25.7359 36.6662 25.6714 36.7659 25.5785 36.8336C25.1634 37.099 24.681 37.2401 24.1883 37.2401C23.6957 37.2401 23.2133 37.099 22.7982 36.8336C22.757 36.8049 22.7212 36.7691 22.6926 36.7279C20.827 34.0394 21.5805 27.4807 26.3069 28.6179C26.3337 28.6233 26.3598 28.6317 26.3848 28.6429C29.5598 30.0108 35.3372 34.5204 37.1055 28.5317V28.5067C37.3557 27.8144 38.2509 26.0878 37.3362 25.5318C37.2349 25.4642 37.1118 25.4374 36.9915 25.4567ZM27.8639 5.08845C25.8398 4.91052 24.8473 4.20433 23.9103 3.04496C23.8563 2.97628 23.8224 2.89398 23.8123 2.8072C23.8023 2.72041 23.8165 2.63253 23.8533 2.55332C23.8902 2.47411 23.9483 2.40667 24.0212 2.35849C24.0941 2.31031 24.1789 2.28327 24.2662 2.28038C26.1345 2.21366 27.6275 3.04774 28.3198 4.39895C28.3588 4.47376 28.377 4.55762 28.3726 4.64185C28.3682 4.72608 28.3414 4.8076 28.2948 4.87795C28.2483 4.9483 28.1838 5.00492 28.108 5.04193C28.0323 5.07895 27.9479 5.09501 27.8639 5.08845ZM29.5932 10.3209C30.3136 10.9901 30.8628 11.8225 31.1946 12.7481C31.2289 12.8371 31.2355 12.9345 31.2134 13.0273C31.1913 13.1202 31.1417 13.2041 31.071 13.2682C31.0003 13.3323 30.9118 13.3735 30.8173 13.3864C30.7227 13.3992 30.6265 13.3832 30.5413 13.3403C29.5376 12.8398 28.9648 12.1031 28.8036 10.7185C28.7936 10.6231 28.8129 10.5268 28.8589 10.4426C28.9049 10.3584 28.9754 10.2902 29.0611 10.247C29.1468 10.2039 29.2436 10.1878 29.3387 10.201C29.4337 10.2142 29.5225 10.256 29.5932 10.3209ZM24.4664 14.8694C25.4202 15.3156 26.2288 16.022 26.799 16.9074C26.8489 16.9861 26.8741 17.0779 26.8717 17.1711C26.8692 17.2643 26.8391 17.3546 26.7851 17.4306C26.7312 17.5066 26.6559 17.5648 26.5687 17.5979C26.4816 17.631 26.3866 17.6374 26.2958 17.6163C24.9835 17.3383 24.1772 16.6405 23.8074 15.4283C23.7817 15.3405 23.7819 15.2472 23.8082 15.1595C23.8344 15.0719 23.8855 14.9938 23.9552 14.9346C24.025 14.8755 24.1104 14.8378 24.2011 14.8263C24.2919 14.8147 24.384 14.8297 24.4664 14.8694ZM34.8284 35.107C34.1862 36.5972 33.2659 37.6871 31.62 38.1848C31.5456 38.2076 31.4668 38.2116 31.3904 38.1966C31.3141 38.1817 31.2427 38.148 31.1824 38.0988C31.1222 38.0496 31.0751 37.9863 31.0452 37.9144C31.0153 37.8426 31.0036 37.7645 31.0111 37.6871C31.2335 35.7409 32.5959 35.0014 34.2474 34.4731C34.3334 34.4459 34.4254 34.4438 34.5126 34.4673C34.5997 34.4907 34.6784 34.5385 34.7392 34.6052C34.8 34.6718 34.8404 34.7545 34.8558 34.8435C34.8711 34.9324 34.8606 35.0238 34.8257 35.107H34.8284ZM27.1827 33.2776C27.3588 33.5323 27.4661 33.8281 27.4943 34.1364C27.5226 34.4447 27.4708 34.7551 27.3439 35.0375C27.3096 35.1257 27.2495 35.2015 27.1713 35.255C27.0932 35.3084 27.0007 35.337 26.9061 35.337C26.8114 35.337 26.7189 35.3084 26.6408 35.255C26.5627 35.2015 26.5025 35.1257 26.4682 35.0375C26.3271 34.5466 26.2781 34.0338 26.3236 33.525C26.3276 33.4266 26.3625 33.3318 26.4234 33.2543C26.4842 33.1767 26.5679 33.1203 26.6626 33.0929C26.7573 33.0655 26.8582 33.0686 26.9511 33.1018C27.0439 33.1349 27.124 33.1964 27.1799 33.2776H27.1827ZM32.3484 29.3852C33.0641 28.4432 34.0583 27.7506 35.1899 27.4057C35.2768 27.3756 35.3707 27.3716 35.4599 27.3944C35.549 27.4171 35.6295 27.4656 35.6914 27.5337C35.7533 27.6018 35.7938 27.6865 35.808 27.7775C35.8221 27.8684 35.8092 27.9615 35.7709 28.0451C35.0981 29.5409 34.9146 30.5196 32.6515 30.1248C32.5736 30.1109 32.5004 30.0776 32.4387 30.0281C32.3769 29.9786 32.3286 29.9143 32.2982 29.8413C32.2678 29.7682 32.2562 29.6887 32.2645 29.61C32.2727 29.5313 32.3007 29.4559 32.3457 29.3908L32.3484 29.3852Z" fill="url(#paint0_linear_103_142)"/>
<path fill-rule="evenodd" clip-rule="evenodd" d="M1.41505 26.049C1.29272 26.8664 1.75425 27.87 2.00447 28.4817C2.01127 28.4979 2.01685 28.5147 2.02115 28.5317C3.79774 34.4982 9.55012 30.0025 12.728 28.6318C12.7595 28.6182 12.792 28.6071 12.8253 28.5985C19.0948 27.0804 18.4748 39.7195 13.6983 36.8559C13.5697 36.7796 13.475 36.6573 13.4332 36.5138C13.3914 36.3703 13.4056 36.2163 13.4731 36.083C14.1098 34.8485 14.5852 32.249 13.7733 30.9478C13.7038 30.837 13.5995 30.7524 13.4768 30.7071C13.3541 30.6619 13.2198 30.6585 13.095 30.6976C11.7048 31.1257 9.71972 33.4278 10.2313 35.1321C10.6845 36.6446 12.3832 38.0931 14.3127 38.4351C14.4409 38.4568 14.5582 38.5204 14.6462 38.616C14.7343 38.7116 14.7881 38.8337 14.7992 38.9632C14.8103 39.0927 14.7782 39.2222 14.7077 39.3314C14.6373 39.4406 14.5326 39.5234 14.41 39.5666C12.436 40.2478 9.62797 39.8085 9.44169 37.6065C9.43701 37.5475 9.42391 37.4895 9.40277 37.4342C8.8912 36.1247 8.20169 34.6233 7.02842 33.9839L6.96725 33.9533C6.29721 33.6752 4.31209 32.5798 3.28061 32.5826C3.20359 32.5833 3.12748 32.5993 3.0567 32.6297C2.98593 32.6601 2.9219 32.7043 2.86835 32.7597C2.8148 32.815 2.77279 32.8805 2.74476 32.9522C2.71673 33.024 2.70325 33.1006 2.7051 33.1776C2.78295 36.664 4.9877 40.1282 8.54366 39.6862C8.63744 39.6741 8.73274 39.6851 8.82136 39.718C8.90999 39.7509 8.98929 39.8049 9.05245 39.8752C10.9291 41.9271 15.0523 41.2153 16.7538 39.5333C19.4312 36.7363 18.5526 28.9682 18.1968 24.5198C18.1886 24.4294 18.1601 24.3419 18.1133 24.264C16.5203 21.6117 15.3831 22.1232 16.6203 18.9815C16.6679 18.8632 16.6755 18.7326 16.6419 18.6096C16.6082 18.4866 16.5352 18.378 16.4341 18.3004C15.5833 17.647 14.8604 19.2985 14.7659 20.583C14.7621 20.6618 14.7424 20.739 14.708 20.8101C14.6736 20.8811 14.6253 20.9445 14.5658 20.9964C14.5064 21.0483 14.4371 21.0877 14.3621 21.1122C14.287 21.1367 14.2079 21.1458 14.1292 21.139C12.0579 20.9583 10.134 21.2836 8.56869 22.1399C8.53701 22.1561 8.50718 22.1757 8.47972 22.1983C6.23882 24.0138 3.96734 22.7766 4.72635 19.9852C4.74802 19.9043 4.78585 19.8286 4.83756 19.7628C7.04232 17.1048 14.1487 21.4421 16.1672 16.5794C16.4202 16.0567 17.6963 12.8649 16.2089 12.712C16.0929 12.7025 15.9768 12.7277 15.8752 12.7843C13.0672 14.3385 12.1358 14.5387 10.615 17.369C10.5612 17.468 10.4804 17.5496 10.3819 17.6042C10.2834 17.6589 10.1713 17.6843 10.0589 17.6776C6.91721 17.5413 4.53174 17.0798 3.48913 19.7072C3.24189 20.3535 3.18874 21.0579 3.33622 21.734C3.36325 21.8593 3.34848 21.9901 3.29416 22.1062C3.23985 22.2223 3.14898 22.3175 3.03546 22.3771C2.92194 22.4367 2.79202 22.4574 2.66558 22.4362C2.53914 22.415 2.42314 22.3529 2.33532 22.2595C1.88281 21.7919 1.5649 21.2108 1.41516 20.5776C1.26542 19.9444 1.2894 19.2825 1.48456 18.6618C2.97478 14.4608 7.679 16.268 10.3814 13.7296C11.5158 12.7787 12.1914 9.77605 11.2155 8.15238C11.1476 8.03698 11.0416 7.94886 10.9158 7.90319C10.7899 7.85751 10.6521 7.85715 10.526 7.90215C8.78833 8.51103 6.75039 11.3608 6.2555 13.3487C6.23286 13.4461 6.18547 13.536 6.11791 13.6097C6.05035 13.6834 5.96491 13.7385 5.86986 13.7695C5.7748 13.8005 5.67335 13.8065 5.57531 13.7869C5.47727 13.7672 5.38596 13.7226 5.31021 13.6573C4.02295 12.5452 4.91541 8.90583 5.86626 8.00502L5.89129 7.98278C7.90698 5.78081 9.78366 7.07085 12.8753 6.24511C14.663 5.7669 15.2052 4.81327 16.2561 3.66224C16.2639 3.65162 16.2733 3.64225 16.2839 3.63444C21.0326 -0.925203 9.43613 0.679013 9.1442 4.64924C9.13855 4.79114 9.08112 4.92606 8.98277 5.02852C8.88441 5.13097 8.75195 5.19385 8.61039 5.20529C4.30097 5.50278 2.34366 10.6268 3.84223 13.8769C3.909 14.0178 3.91724 14.1794 3.86513 14.3264C3.81302 14.4733 3.70482 14.5936 3.5642 14.661C-1.47365 17.027 -1.03992 23.2798 4.08689 24.7534C4.99527 24.9329 5.93519 24.8657 6.80878 24.5587L6.87828 24.5198C11.057 21.9036 17.5712 20.6942 17.2209 27.4669C17.2164 27.5647 17.1874 27.6597 17.1366 27.7433C17.0857 27.8269 17.0147 27.8965 16.93 27.9454C16.8453 27.9944 16.7496 28.0214 16.6518 28.0237C16.554 28.0261 16.4571 28.0038 16.3701 27.959C15.3081 27.403 13.9707 27.314 13.2312 26.4743C13.2088 26.4525 13.19 26.4271 13.1756 26.3993C12.8086 25.8043 12.7474 24.8479 12.2442 24.3169C12.1562 24.2252 12.0407 24.1648 11.9153 24.1447C11.7899 24.1247 11.6613 24.146 11.5491 24.2056C11.4384 24.2492 11.342 24.3227 11.2708 24.418C11.1996 24.5133 11.1564 24.6265 11.146 24.745C11.1332 24.8388 11.1437 24.9343 11.1766 25.023C11.3429 25.6219 11.5654 26.2037 11.8411 26.7607C11.8832 26.8325 11.9095 26.9125 11.9182 26.9953C11.9269 27.0782 11.9178 27.1619 11.8914 27.2409C11.8651 27.3199 11.8222 27.3923 11.7655 27.4534C11.7089 27.5144 11.6398 27.5626 11.563 27.5948C10.604 28.0076 9.69161 28.5211 8.84115 29.1267C8.72162 29.2088 8.57592 29.2437 8.43216 29.2247C8.28841 29.2057 8.15678 29.1342 8.06268 29.0239C7.70402 28.5957 7.40931 28.0813 7.05066 27.6532C7.02108 27.6179 6.98749 27.5862 6.95057 27.5586C5.87461 26.7496 3.55864 25.3622 1.92662 25.5596C1.79919 25.573 1.67981 25.6283 1.58722 25.7169C1.49462 25.8054 1.43407 25.9223 1.41505 26.049ZM10.918 4.15991C11.3155 3.56122 11.8591 3.07372 12.4973 2.74341C13.1355 2.41311 13.8474 2.2509 14.5657 2.27211C14.679 2.27089 14.7902 2.30248 14.8859 2.36307C14.9815 2.42366 15.0576 2.51066 15.105 2.61355C15.1523 2.71645 15.1688 2.83084 15.1526 2.94293C15.1363 3.05501 15.088 3.16 15.0133 3.2452C14.132 4.24332 12.9504 5.0774 11.399 5.06906C11.2939 5.06744 11.1911 5.03761 11.1015 4.98269C11.0119 4.92776 10.9386 4.84975 10.8895 4.75682C10.8403 4.6639 10.817 4.55947 10.822 4.45446C10.8271 4.34945 10.8602 4.24772 10.918 4.15991ZM8.03487 12.4229C8.31802 11.7396 8.72524 11.1146 9.23595 10.5795C9.32383 10.4884 9.43886 10.428 9.56385 10.4076C9.68884 10.3872 9.81708 10.4078 9.9294 10.4663C10.0417 10.5248 10.1321 10.6181 10.187 10.7322C10.2419 10.8464 10.2584 10.9752 10.2341 11.0995C10.1772 11.522 10.026 11.9263 9.79158 12.2825C9.55719 12.6386 9.24566 12.9375 8.88008 13.1569C8.77371 13.2223 8.64923 13.2521 8.52476 13.2419C8.40028 13.2317 8.28232 13.182 8.18802 13.1001C8.09372 13.0183 8.02802 12.9084 8.00048 12.7866C7.97293 12.6648 7.98498 12.5374 8.03487 12.4229ZM12.4833 16.6239C12.9748 15.9554 13.6105 15.4061 14.3433 15.0169C14.4493 14.9563 14.5716 14.9303 14.6931 14.9425C14.8146 14.9548 14.9292 15.0046 15.021 15.0851C15.1128 15.1656 15.1773 15.2727 15.2053 15.3916C15.2333 15.5104 15.2236 15.635 15.1774 15.7481C15.0065 16.1887 14.7313 16.5812 14.3754 16.8921C14.0195 17.203 13.5935 17.4229 13.1339 17.533C13.0162 17.5677 12.8906 17.5647 12.7747 17.5243C12.6588 17.4839 12.5585 17.4082 12.488 17.3079C12.4174 17.2075 12.38 17.0875 12.3812 16.9648C12.3823 16.8421 12.4219 16.7229 12.4944 16.6239H12.4833ZM7.29532 38.1237C5.85792 37.6343 4.99882 36.6668 4.38994 35.3629C4.34137 35.2587 4.32446 35.1426 4.34131 35.0289C4.35816 34.9152 4.40803 34.809 4.48473 34.7234C4.56144 34.6378 4.66159 34.5766 4.77275 34.5475C4.88391 34.5183 5.00119 34.5225 5.11003 34.5594C6.58635 35.0654 7.78465 35.7966 8.06268 37.4786C8.07882 37.5784 8.06881 37.6806 8.03364 37.7752C7.99846 37.8699 7.93933 37.9539 7.86201 38.0189C7.78468 38.0839 7.69182 38.1277 7.59249 38.1461C7.49317 38.1644 7.39078 38.1567 7.29532 38.1237ZM11.602 34.2313C11.602 34.1729 11.602 34.1173 11.602 34.0589C11.6909 33.3194 12.803 33.425 12.7697 34.1701C12.7697 34.2035 12.7697 34.2369 12.7697 34.2702C12.7527 34.4152 12.6823 34.5486 12.5723 34.6445C12.4622 34.7403 12.3204 34.7917 12.1744 34.7886C12.0285 34.7854 11.889 34.728 11.7832 34.6276C11.6773 34.5271 11.6127 34.3908 11.602 34.2452V34.2313ZM4.18698 27.5114C5.14175 27.8501 5.98583 28.4433 6.62806 29.2268C6.69016 29.308 6.72998 29.4039 6.74359 29.5052C6.75719 29.6065 6.7441 29.7096 6.70562 29.8042C6.66714 29.8989 6.60459 29.9819 6.52418 30.0449C6.44376 30.108 6.34827 30.149 6.24716 30.1638C4.30097 30.4418 4.02295 29.6077 3.43631 28.2954C3.3891 28.1891 3.37458 28.0711 3.3946 27.9565C3.41463 27.8418 3.46829 27.7358 3.54876 27.6517C3.62923 27.5677 3.73288 27.5094 3.84652 27.4845C3.96017 27.4595 4.07868 27.4688 4.18698 27.5114Z" fill="url(#paint1_linear_103_142)"/>
<defs>
<linearGradient id="paint0_linear_103_142" x1="34.2891" y1="4.43509" x2="20.8743" y2="39.3859" gradientUnits="userSpaceOnUse">
<stop stop-color="#E2B747"/>
<stop offset="0.3" stop-color="#D9B650"/>
<stop offset="0.4" stop-color="#F9EA80"/>
<stop offset="0.55" stop-color="#D9B650" stop-opacity="0.91"/>
<stop offset="0.7" stop-color="#BE9536" stop-opacity="0.94"/>
<stop offset="0.85" stop-color="#F6DF98" stop-opacity="0.99"/>
<stop offset="1" stop-color="#E2B747"/>
</linearGradient>
<linearGradient id="paint1_linear_103_142" x1="19.0308" y1="1.90789" x2="4.85147" y2="38.8521" gradientUnits="userSpaceOnUse">
<stop stop-color="#E2B747"/>
<stop offset="0.3" stop-color="#D9B650"/>
<stop offset="0.4" stop-color="#F9EA80"/>
<stop offset="0.55" stop-color="#D9B650" stop-opacity="0.91"/>
<stop offset="0.7" stop-color="#BE9536" stop-opacity="0.94"/>
<stop offset="0.85" stop-color="#F6DF98" stop-opacity="0.99"/>
<stop offset="1" stop-color="#E2B747"/>
</linearGradient>
</defs>
</svg>
