<svg width="435" height="58" viewBox="0 0 435 58" fill="none" xmlns="http://www.w3.org/2000/svg">
<path d="M18.3676 34.128C18.0369 34.128 17.7809 34.0373 17.5996 33.856C17.4289 33.664 17.3436 33.4027 17.3436 33.072V23.648C17.3436 23.3067 17.4289 23.0453 17.5996 22.864C17.7809 22.6827 18.0369 22.592 18.3676 22.592C18.6982 22.592 18.9489 22.6827 19.1196 22.864C19.3009 23.0453 19.3916 23.3067 19.3916 23.648V27.424H25.1996V23.648C25.1996 23.3067 25.2849 23.0453 25.4556 22.864C25.6369 22.6827 25.8929 22.592 26.2236 22.592C26.5542 22.592 26.8049 22.6827 26.9756 22.864C27.1569 23.0453 27.2476 23.3067 27.2476 23.648V33.072C27.2476 33.4027 27.1569 33.664 26.9756 33.856C26.8049 34.0373 26.5542 34.128 26.2236 34.128C25.8929 34.128 25.6369 34.0373 25.4556 33.856C25.2849 33.664 25.1996 33.4027 25.1996 33.072V29.136H19.3916V33.072C19.3916 33.4027 19.3062 33.664 19.1356 33.856C18.9649 34.0373 18.7089 34.128 18.3676 34.128ZM33.2546 34.16C32.4439 34.16 31.7399 33.9947 31.1426 33.664C30.5452 33.3333 30.0812 32.864 29.7506 32.256C29.4199 31.6373 29.2546 30.912 29.2546 30.08C29.2546 29.4507 29.3452 28.8907 29.5266 28.4C29.7186 27.8987 29.9906 27.472 30.3426 27.12C30.6946 26.7573 31.1159 26.4853 31.6066 26.304C32.0972 26.112 32.6466 26.016 33.2546 26.016C34.0652 26.016 34.7692 26.1813 35.3666 26.512C35.9639 26.8427 36.4279 27.312 36.7586 27.92C37.0892 28.528 37.2546 29.248 37.2546 30.08C37.2546 30.7093 37.1586 31.2747 36.9666 31.776C36.7852 32.2773 36.5186 32.7093 36.1666 33.072C35.8146 33.424 35.3932 33.696 34.9026 33.888C34.4119 34.0693 33.8626 34.16 33.2546 34.16ZM33.2546 32.64C33.6492 32.64 33.9959 32.544 34.2946 32.352C34.5932 32.16 34.8226 31.8773 34.9826 31.504C35.1532 31.12 35.2386 30.6453 35.2386 30.08C35.2386 29.2267 35.0572 28.592 34.6946 28.176C34.3319 27.7493 33.8519 27.536 33.2546 27.536C32.8599 27.536 32.5132 27.632 32.2146 27.824C31.9159 28.0053 31.6812 28.288 31.5106 28.672C31.3506 29.0453 31.2706 29.5147 31.2706 30.08C31.2706 30.9227 31.4519 31.5627 31.8146 32C32.1772 32.4267 32.6572 32.64 33.2546 32.64ZM40.0893 34.128C39.7693 34.128 39.524 34.0427 39.3533 33.872C39.1826 33.6907 39.0973 33.4347 39.0973 33.104V27.056C39.0973 26.7253 39.1826 26.4747 39.3533 26.304C39.524 26.1333 39.764 26.048 40.0733 26.048C40.3826 26.048 40.6226 26.1333 40.7933 26.304C40.964 26.4747 41.0493 26.7253 41.0493 27.056V28.224L40.8733 27.744C41.0866 27.2107 41.4173 26.7893 41.8653 26.48C42.3133 26.1707 42.8466 26.016 43.4653 26.016C44.0946 26.016 44.612 26.1653 45.0173 26.464C45.4226 26.7627 45.7053 27.2213 45.8653 27.84H45.6413C45.8546 27.2747 46.2066 26.832 46.6973 26.512C47.188 26.1813 47.7533 26.016 48.3933 26.016C48.9906 26.016 49.4813 26.1333 49.8653 26.368C50.26 26.6027 50.5533 26.96 50.7453 27.44C50.9373 27.9093 51.0333 28.5067 51.0333 29.232V33.104C51.0333 33.4347 50.9426 33.6907 50.7613 33.872C50.5906 34.0427 50.3453 34.128 50.0253 34.128C49.7053 34.128 49.46 34.0427 49.2893 33.872C49.1186 33.6907 49.0333 33.4347 49.0333 33.104V29.312C49.0333 28.7147 48.932 28.2773 48.7293 28C48.5373 27.7227 48.2066 27.584 47.7373 27.584C47.2146 27.584 46.804 27.7707 46.5053 28.144C46.2066 28.5067 46.0573 29.0133 46.0573 29.664V33.104C46.0573 33.4347 45.972 33.6907 45.8013 33.872C45.6306 34.0427 45.3853 34.128 45.0653 34.128C44.7453 34.128 44.4946 34.0427 44.3133 33.872C44.1426 33.6907 44.0573 33.4347 44.0573 33.104V29.312C44.0573 28.7147 43.956 28.2773 43.7533 28C43.5613 27.7227 43.236 27.584 42.7773 27.584C42.2546 27.584 41.844 27.7707 41.5453 28.144C41.2466 28.5067 41.0973 29.0133 41.0973 29.664V33.104C41.0973 33.7867 40.7613 34.128 40.0893 34.128ZM57.1126 34.16C56.2272 34.16 55.4646 33.9947 54.8246 33.664C54.1846 33.3333 53.6886 32.864 53.3366 32.256C52.9952 31.648 52.8246 30.928 52.8246 30.096C52.8246 29.2853 52.9899 28.576 53.3206 27.968C53.6619 27.36 54.1259 26.8853 54.7126 26.544C55.3099 26.192 55.9872 26.016 56.7446 26.016C57.2992 26.016 57.7952 26.1067 58.2326 26.288C58.6806 26.4693 59.0592 26.7307 59.3686 27.072C59.6886 27.4133 59.9286 27.8293 60.0886 28.32C60.2592 28.8 60.3446 29.344 60.3446 29.952C60.3446 30.144 60.2752 30.2933 60.1366 30.4C60.0086 30.496 59.8219 30.544 59.5766 30.544H54.4406V29.392H58.9366L58.6806 29.632C58.6806 29.1413 58.6059 28.7307 58.4566 28.4C58.3179 28.0693 58.1099 27.8187 57.8326 27.648C57.5659 27.4667 57.2299 27.376 56.8246 27.376C56.3766 27.376 55.9926 27.4827 55.6726 27.696C55.3632 27.8987 55.1232 28.192 54.9526 28.576C54.7926 28.9493 54.7126 29.3973 54.7126 29.92V30.032C54.7126 30.9067 54.9152 31.5627 55.3206 32C55.7366 32.4267 56.3446 32.64 57.1446 32.64C57.4219 32.64 57.7312 32.608 58.0726 32.544C58.4246 32.4693 58.7552 32.3467 59.0646 32.176C59.2886 32.048 59.4859 31.9947 59.6566 32.016C59.8272 32.0267 59.9606 32.0853 60.0566 32.192C60.1632 32.2987 60.2272 32.432 60.2486 32.592C60.2699 32.7413 60.2379 32.896 60.1526 33.056C60.0779 33.216 59.9446 33.3547 59.7526 33.472C59.3792 33.7067 58.9472 33.8827 58.4566 34C57.9766 34.1067 57.5286 34.16 57.1126 34.16Z" fill="#F7F3EB"/>
<path d="M94.4615 34.128C94.2055 34.128 93.9975 34.0693 93.8375 33.952C93.6882 33.8347 93.5975 33.68 93.5655 33.488C93.5335 33.2853 93.5708 33.0613 93.6775 32.816L97.9015 23.456C98.0402 23.1467 98.2055 22.928 98.3975 22.8C98.6002 22.6613 98.8295 22.592 99.0855 22.592C99.3308 22.592 99.5495 22.6613 99.7415 22.8C99.9442 22.928 100.115 23.1467 100.254 23.456L104.494 32.816C104.611 33.0613 104.654 33.2853 104.622 33.488C104.59 33.6907 104.499 33.8507 104.35 33.968C104.2 34.0747 104.003 34.128 103.758 34.128C103.459 34.128 103.224 34.0587 103.054 33.92C102.894 33.7707 102.75 33.5467 102.622 33.248L101.582 30.832L102.446 31.392H95.6935L96.5575 30.832L95.5335 33.248C95.3948 33.5573 95.2508 33.7813 95.1015 33.92C94.9522 34.0587 94.7388 34.128 94.4615 34.128ZM99.0535 24.944L96.8135 30.272L96.3975 29.76H101.742L101.342 30.272L99.0855 24.944H99.0535ZM110.736 34.16C110.074 34.16 109.493 33.9947 108.992 33.664C108.501 33.3333 108.176 32.8907 108.016 32.336L108.192 31.936V33.104C108.192 33.4347 108.106 33.6907 107.936 33.872C107.765 34.0427 107.525 34.128 107.216 34.128C106.896 34.128 106.65 34.0427 106.48 33.872C106.309 33.6907 106.224 33.4347 106.224 33.104V23.6C106.224 23.2693 106.309 23.0187 106.48 22.848C106.65 22.6773 106.896 22.592 107.216 22.592C107.536 22.592 107.781 22.6773 107.952 22.848C108.133 23.0187 108.224 23.2693 108.224 23.6V27.76H108.032C108.202 27.2373 108.533 26.816 109.024 26.496C109.514 26.176 110.085 26.016 110.736 26.016C111.429 26.016 112.032 26.1813 112.544 26.512C113.056 26.8427 113.456 27.312 113.744 27.92C114.032 28.5173 114.176 29.2373 114.176 30.08C114.176 30.912 114.032 31.6373 113.744 32.256C113.456 32.864 113.05 33.3333 112.528 33.664C112.016 33.9947 111.418 34.16 110.736 34.16ZM110.176 32.64C110.57 32.64 110.917 32.544 111.216 32.352C111.514 32.16 111.744 31.8773 111.904 31.504C112.074 31.12 112.16 30.6453 112.16 30.08C112.16 29.2267 111.978 28.592 111.616 28.176C111.253 27.7493 110.773 27.536 110.176 27.536C109.781 27.536 109.434 27.632 109.136 27.824C108.837 28.0053 108.602 28.288 108.432 28.672C108.272 29.0453 108.192 29.5147 108.192 30.08C108.192 30.9227 108.373 31.5627 108.736 32C109.098 32.4267 109.578 32.64 110.176 32.64ZM119.546 34.16C118.735 34.16 118.031 33.9947 117.434 33.664C116.836 33.3333 116.372 32.864 116.042 32.256C115.711 31.6373 115.546 30.912 115.546 30.08C115.546 29.4507 115.636 28.8907 115.818 28.4C116.01 27.8987 116.282 27.472 116.634 27.12C116.986 26.7573 117.407 26.4853 117.898 26.304C118.388 26.112 118.938 26.016 119.546 26.016C120.356 26.016 121.06 26.1813 121.658 26.512C122.255 26.8427 122.719 27.312 123.05 27.92C123.38 28.528 123.546 29.248 123.546 30.08C123.546 30.7093 123.45 31.2747 123.258 31.776C123.076 32.2773 122.81 32.7093 122.458 33.072C122.106 33.424 121.684 33.696 121.194 33.888C120.703 34.0693 120.154 34.16 119.546 34.16ZM119.546 32.64C119.94 32.64 120.287 32.544 120.586 32.352C120.884 32.16 121.114 31.8773 121.274 31.504C121.444 31.12 121.53 30.6453 121.53 30.08C121.53 29.2267 121.348 28.592 120.986 28.176C120.623 27.7493 120.143 27.536 119.546 27.536C119.151 27.536 118.804 27.632 118.506 27.824C118.207 28.0053 117.972 28.288 117.802 28.672C117.642 29.0453 117.562 29.5147 117.562 30.08C117.562 30.9227 117.743 31.5627 118.106 32C118.468 32.4267 118.948 32.64 119.546 32.64ZM128.188 34.16C127.538 34.16 126.999 34.0427 126.572 33.808C126.146 33.5627 125.826 33.2 125.612 32.72C125.41 32.24 125.308 31.6427 125.308 30.928V27.056C125.308 26.7147 125.394 26.464 125.564 26.304C125.735 26.1333 125.98 26.048 126.3 26.048C126.62 26.048 126.866 26.1333 127.036 26.304C127.218 26.464 127.308 26.7147 127.308 27.056V30.96C127.308 31.5147 127.42 31.9253 127.644 32.192C127.868 32.4587 128.226 32.592 128.716 32.592C129.25 32.592 129.687 32.4107 130.028 32.048C130.37 31.6747 130.54 31.184 130.54 30.576V27.056C130.54 26.7147 130.626 26.464 130.796 26.304C130.967 26.1333 131.212 26.048 131.532 26.048C131.852 26.048 132.098 26.1333 132.268 26.304C132.45 26.464 132.54 26.7147 132.54 27.056V33.104C132.54 33.7867 132.215 34.128 131.564 34.128C131.255 34.128 131.015 34.0427 130.844 33.872C130.674 33.6907 130.588 33.4347 130.588 33.104V31.888L130.812 32.368C130.588 32.944 130.247 33.3867 129.788 33.696C129.34 34.0053 128.807 34.16 128.188 34.16ZM138.366 34.16C137.673 34.16 137.091 34.0427 136.622 33.808C136.163 33.5733 135.822 33.232 135.598 32.784C135.374 32.3253 135.262 31.76 135.262 31.088V27.68H134.43C134.174 27.68 133.977 27.616 133.838 27.488C133.699 27.3493 133.63 27.1627 133.63 26.928C133.63 26.6827 133.699 26.496 133.838 26.368C133.977 26.24 134.174 26.176 134.43 26.176H135.262V24.72C135.262 24.3893 135.347 24.1387 135.518 23.968C135.699 23.7973 135.95 23.712 136.27 23.712C136.59 23.712 136.835 23.7973 137.006 23.968C137.177 24.1387 137.262 24.3893 137.262 24.72V26.176H138.958C139.214 26.176 139.411 26.24 139.55 26.368C139.689 26.496 139.758 26.6827 139.758 26.928C139.758 27.1627 139.689 27.3493 139.55 27.488C139.411 27.616 139.214 27.68 138.958 27.68H137.262V30.976C137.262 31.488 137.374 31.872 137.598 32.128C137.822 32.384 138.185 32.512 138.686 32.512C138.867 32.512 139.027 32.496 139.166 32.464C139.305 32.432 139.427 32.4107 139.534 32.4C139.662 32.3893 139.769 32.432 139.854 32.528C139.939 32.6133 139.982 32.7947 139.982 33.072C139.982 33.2853 139.945 33.4773 139.87 33.648C139.806 33.808 139.683 33.92 139.502 33.984C139.363 34.0267 139.182 34.064 138.958 34.096C138.734 34.1387 138.537 34.16 138.366 34.16Z" fill="#F7F3EB"/>
<path d="M177.607 34.16C177.138 34.16 176.668 34.1227 176.199 34.048C175.73 33.984 175.287 33.8827 174.871 33.744C174.455 33.5947 174.082 33.4133 173.751 33.2C173.559 33.072 173.426 32.9173 173.351 32.736C173.276 32.5547 173.25 32.3787 173.271 32.208C173.303 32.0267 173.372 31.872 173.479 31.744C173.596 31.6053 173.74 31.52 173.911 31.488C174.082 31.456 174.268 31.504 174.471 31.632C174.94 31.9093 175.436 32.112 175.959 32.24C176.482 32.368 177.031 32.432 177.607 32.432C178.45 32.432 179.063 32.2933 179.447 32.016C179.831 31.728 180.023 31.36 180.023 30.912C180.023 30.5387 179.884 30.2453 179.607 30.032C179.34 29.8187 178.876 29.6427 178.215 29.504L176.455 29.136C175.442 28.9227 174.684 28.5653 174.183 28.064C173.692 27.552 173.447 26.88 173.447 26.048C173.447 25.5253 173.554 25.0507 173.767 24.624C173.98 24.1973 174.279 23.8293 174.663 23.52C175.058 23.2107 175.522 22.976 176.055 22.816C176.599 22.6453 177.196 22.56 177.847 22.56C178.487 22.56 179.095 22.64 179.671 22.8C180.247 22.96 180.764 23.1947 181.223 23.504C181.394 23.6213 181.506 23.7653 181.559 23.936C181.623 24.1067 181.639 24.2773 181.607 24.448C181.575 24.608 181.5 24.7467 181.383 24.864C181.266 24.9813 181.116 25.0507 180.935 25.072C180.764 25.0933 180.567 25.04 180.343 24.912C179.948 24.688 179.548 24.528 179.143 24.432C178.738 24.336 178.3 24.288 177.831 24.288C177.34 24.288 176.919 24.3573 176.567 24.496C176.215 24.6347 175.943 24.832 175.751 25.088C175.57 25.3333 175.479 25.6267 175.479 25.968C175.479 26.352 175.607 26.6613 175.863 26.896C176.119 27.12 176.556 27.296 177.175 27.424L178.919 27.792C179.975 28.016 180.759 28.368 181.271 28.848C181.794 29.328 182.055 29.968 182.055 30.768C182.055 31.28 181.948 31.744 181.735 32.16C181.532 32.576 181.234 32.9333 180.839 33.232C180.455 33.5307 179.991 33.76 179.447 33.92C178.903 34.08 178.29 34.16 177.607 34.16ZM187.637 34.16C186.751 34.16 185.989 33.9947 185.349 33.664C184.709 33.3333 184.213 32.864 183.861 32.256C183.519 31.648 183.349 30.928 183.349 30.096C183.349 29.2853 183.514 28.576 183.845 27.968C184.186 27.36 184.65 26.8853 185.237 26.544C185.834 26.192 186.511 26.016 187.269 26.016C187.823 26.016 188.319 26.1067 188.757 26.288C189.205 26.4693 189.583 26.7307 189.893 27.072C190.213 27.4133 190.453 27.8293 190.613 28.32C190.783 28.8 190.869 29.344 190.869 29.952C190.869 30.144 190.799 30.2933 190.661 30.4C190.533 30.496 190.346 30.544 190.101 30.544H184.965V29.392H189.461L189.205 29.632C189.205 29.1413 189.13 28.7307 188.981 28.4C188.842 28.0693 188.634 27.8187 188.357 27.648C188.09 27.4667 187.754 27.376 187.349 27.376C186.901 27.376 186.517 27.4827 186.197 27.696C185.887 27.8987 185.647 28.192 185.477 28.576C185.317 28.9493 185.237 29.3973 185.237 29.92V30.032C185.237 30.9067 185.439 31.5627 185.845 32C186.261 32.4267 186.869 32.64 187.669 32.64C187.946 32.64 188.255 32.608 188.597 32.544C188.949 32.4693 189.279 32.3467 189.589 32.176C189.813 32.048 190.01 31.9947 190.181 32.016C190.351 32.0267 190.485 32.0853 190.581 32.192C190.687 32.2987 190.751 32.432 190.773 32.592C190.794 32.7413 190.762 32.896 190.677 33.056C190.602 33.216 190.469 33.3547 190.277 33.472C189.903 33.7067 189.471 33.8827 188.981 34C188.501 34.1067 188.053 34.16 187.637 34.16ZM193.637 34.128C193.306 34.128 193.05 34.0427 192.869 33.872C192.698 33.6907 192.613 33.4347 192.613 33.104V27.056C192.613 26.7253 192.698 26.4747 192.869 26.304C193.039 26.1333 193.279 26.048 193.589 26.048C193.898 26.048 194.138 26.1333 194.309 26.304C194.479 26.4747 194.565 26.7253 194.565 27.056V28.064H194.405C194.554 27.424 194.847 26.9387 195.285 26.608C195.722 26.2773 196.303 26.08 197.029 26.016C197.253 25.9947 197.429 26.0533 197.557 26.192C197.695 26.32 197.775 26.5227 197.797 26.8C197.818 27.0667 197.754 27.2853 197.605 27.456C197.466 27.616 197.253 27.712 196.965 27.744L196.613 27.776C195.962 27.84 195.471 28.0427 195.141 28.384C194.81 28.7147 194.645 29.184 194.645 29.792V33.104C194.645 33.4347 194.559 33.6907 194.389 33.872C194.218 34.0427 193.967 34.128 193.637 34.128ZM202.691 34.128C202.424 34.128 202.189 34.0587 201.987 33.92C201.795 33.7813 201.635 33.568 201.507 33.28L198.963 27.376C198.867 27.1413 198.829 26.9227 198.851 26.72C198.883 26.5173 198.979 26.3573 199.139 26.24C199.309 26.112 199.539 26.048 199.827 26.048C200.072 26.048 200.269 26.1067 200.419 26.224C200.568 26.3307 200.701 26.5387 200.819 26.848L202.979 32.24H202.499L204.723 26.832C204.84 26.5333 204.973 26.3307 205.123 26.224C205.283 26.1067 205.496 26.048 205.763 26.048C205.997 26.048 206.184 26.112 206.323 26.24C206.461 26.3573 206.547 26.5173 206.579 26.72C206.611 26.912 206.573 27.1253 206.467 27.36L203.875 33.28C203.757 33.568 203.597 33.7813 203.395 33.92C203.203 34.0587 202.968 34.128 202.691 34.128ZM209.112 34.112C208.792 34.112 208.547 34.016 208.376 33.824C208.205 33.632 208.12 33.3653 208.12 33.024V27.152C208.12 26.8 208.205 26.5333 208.376 26.352C208.547 26.16 208.792 26.064 209.112 26.064C209.432 26.064 209.677 26.16 209.848 26.352C210.029 26.5333 210.12 26.8 210.12 27.152V33.024C210.12 33.3653 210.035 33.632 209.864 33.824C209.693 34.016 209.443 34.112 209.112 34.112ZM209.112 24.576C208.739 24.576 208.445 24.4853 208.232 24.304C208.029 24.112 207.928 23.8507 207.928 23.52C207.928 23.1787 208.029 22.9173 208.232 22.736C208.445 22.5547 208.739 22.464 209.112 22.464C209.496 22.464 209.789 22.5547 209.992 22.736C210.195 22.9173 210.296 23.1787 210.296 23.52C210.296 23.8507 210.195 24.112 209.992 24.304C209.789 24.4853 209.496 24.576 209.112 24.576ZM215.974 34.16C215.153 34.16 214.438 33.9947 213.83 33.664C213.222 33.3227 212.753 32.8427 212.422 32.224C212.091 31.6053 211.926 30.88 211.926 30.048C211.926 29.4187 212.017 28.8587 212.198 28.368C212.39 27.8667 212.662 27.4453 213.014 27.104C213.366 26.752 213.793 26.4853 214.294 26.304C214.795 26.112 215.355 26.016 215.974 26.016C216.326 26.016 216.705 26.064 217.11 26.16C217.526 26.256 217.915 26.416 218.278 26.64C218.449 26.7467 218.561 26.8747 218.614 27.024C218.667 27.1733 218.678 27.328 218.646 27.488C218.614 27.6373 218.545 27.7707 218.438 27.888C218.342 27.9947 218.219 28.064 218.07 28.096C217.921 28.1173 217.755 28.08 217.574 27.984C217.339 27.8453 217.099 27.744 216.854 27.68C216.609 27.6053 216.374 27.568 216.15 27.568C215.798 27.568 215.489 27.6267 215.222 27.744C214.955 27.8507 214.726 28.0107 214.534 28.224C214.353 28.4267 214.214 28.6827 214.118 28.992C214.022 29.3013 213.974 29.6587 213.974 30.064C213.974 30.8533 214.161 31.4773 214.534 31.936C214.918 32.384 215.457 32.608 216.15 32.608C216.374 32.608 216.603 32.576 216.838 32.512C217.083 32.448 217.329 32.3467 217.574 32.208C217.755 32.112 217.915 32.08 218.054 32.112C218.203 32.144 218.326 32.2187 218.422 32.336C218.518 32.4427 218.577 32.576 218.598 32.736C218.619 32.8853 218.598 33.0347 218.534 33.184C218.481 33.3333 218.374 33.456 218.214 33.552C217.862 33.7653 217.489 33.92 217.094 34.016C216.699 34.112 216.326 34.16 215.974 34.16ZM223.765 34.16C222.879 34.16 222.117 33.9947 221.477 33.664C220.837 33.3333 220.341 32.864 219.989 32.256C219.647 31.648 219.477 30.928 219.477 30.096C219.477 29.2853 219.642 28.576 219.973 27.968C220.314 27.36 220.778 26.8853 221.365 26.544C221.962 26.192 222.639 26.016 223.397 26.016C223.951 26.016 224.447 26.1067 224.885 26.288C225.333 26.4693 225.711 26.7307 226.021 27.072C226.341 27.4133 226.581 27.8293 226.741 28.32C226.911 28.8 226.997 29.344 226.997 29.952C226.997 30.144 226.927 30.2933 226.789 30.4C226.661 30.496 226.474 30.544 226.229 30.544H221.093V29.392H225.589L225.333 29.632C225.333 29.1413 225.258 28.7307 225.109 28.4C224.97 28.0693 224.762 27.8187 224.485 27.648C224.218 27.4667 223.882 27.376 223.477 27.376C223.029 27.376 222.645 27.4827 222.325 27.696C222.015 27.8987 221.775 28.192 221.605 28.576C221.445 28.9493 221.365 29.3973 221.365 29.92V30.032C221.365 30.9067 221.567 31.5627 221.973 32C222.389 32.4267 222.997 32.64 223.797 32.64C224.074 32.64 224.383 32.608 224.725 32.544C225.077 32.4693 225.407 32.3467 225.717 32.176C225.941 32.048 226.138 31.9947 226.309 32.016C226.479 32.0267 226.613 32.0853 226.709 32.192C226.815 32.2987 226.879 32.432 226.901 32.592C226.922 32.7413 226.89 32.896 226.805 33.056C226.73 33.216 226.597 33.3547 226.405 33.472C226.031 33.7067 225.599 33.8827 225.109 34C224.629 34.1067 224.181 34.16 223.765 34.16ZM231.605 34.16C231.146 34.16 230.661 34.112 230.149 34.016C229.637 33.92 229.178 33.7547 228.773 33.52C228.602 33.4133 228.479 33.2907 228.405 33.152C228.341 33.0027 228.314 32.8587 228.325 32.72C228.346 32.5707 228.399 32.4427 228.485 32.336C228.581 32.2293 228.698 32.16 228.837 32.128C228.986 32.096 229.146 32.1227 229.317 32.208C229.743 32.4107 230.143 32.5547 230.517 32.64C230.89 32.7147 231.258 32.752 231.621 32.752C232.133 32.752 232.511 32.6667 232.757 32.496C233.013 32.3147 233.141 32.08 233.141 31.792C233.141 31.5467 233.055 31.36 232.885 31.232C232.725 31.0933 232.479 30.992 232.149 30.928L230.549 30.624C229.887 30.496 229.381 30.256 229.029 29.904C228.687 29.5413 228.517 29.0773 228.517 28.512C228.517 28 228.655 27.5573 228.933 27.184C229.221 26.8107 229.615 26.5227 230.117 26.32C230.618 26.1173 231.194 26.016 231.845 26.016C232.314 26.016 232.751 26.0693 233.157 26.176C233.573 26.272 233.973 26.4267 234.357 26.64C234.517 26.7253 234.623 26.8373 234.677 26.976C234.741 27.1147 234.757 27.2587 234.725 27.408C234.693 27.5467 234.629 27.6747 234.533 27.792C234.437 27.8987 234.314 27.968 234.165 28C234.026 28.0213 233.866 27.9893 233.685 27.904C233.354 27.7333 233.034 27.6107 232.725 27.536C232.426 27.4613 232.138 27.424 231.861 27.424C231.338 27.424 230.949 27.5147 230.693 27.696C230.447 27.8773 230.325 28.1173 230.325 28.416C230.325 28.64 230.399 28.8267 230.549 28.976C230.698 29.1253 230.927 29.2267 231.237 29.28L232.837 29.584C233.53 29.712 234.053 29.9467 234.405 30.288C234.767 30.6293 234.949 31.088 234.949 31.664C234.949 32.4427 234.645 33.056 234.037 33.504C233.429 33.9413 232.618 34.16 231.605 34.16Z" fill="#F7F3EB"/>
<path d="M270.619 34C270.267 34 269.995 33.9093 269.803 33.728C269.622 33.536 269.531 33.264 269.531 32.912V23.808C269.531 23.456 269.622 23.1893 269.803 23.008C269.995 22.816 270.267 22.72 270.619 22.72H274.459C275.248 22.72 275.92 22.8373 276.475 23.072C277.03 23.3067 277.451 23.6427 277.739 24.08C278.038 24.5173 278.187 25.04 278.187 25.648C278.187 26.3307 277.99 26.9067 277.595 27.376C277.2 27.8453 276.662 28.16 275.979 28.32V28.08C276.768 28.1973 277.382 28.496 277.819 28.976C278.256 29.456 278.475 30.08 278.475 30.848C278.475 31.8507 278.134 32.6293 277.451 33.184C276.779 33.728 275.84 34 274.635 34H270.619ZM271.499 32.448H274.379C275.104 32.448 275.638 32.3093 275.979 32.032C276.32 31.744 276.491 31.3173 276.491 30.752C276.491 30.176 276.32 29.7493 275.979 29.472C275.638 29.1947 275.104 29.056 274.379 29.056H271.499V32.448ZM271.499 27.504H274.107C274.811 27.504 275.334 27.3707 275.675 27.104C276.027 26.8267 276.203 26.4213 276.203 25.888C276.203 25.3547 276.027 24.9547 275.675 24.688C275.334 24.4107 274.811 24.272 274.107 24.272H271.499V27.504ZM283.187 34.16C282.301 34.16 281.635 33.9093 281.187 33.408C280.739 32.896 280.515 32.1493 280.515 31.168V23.6C280.515 23.2693 280.6 23.0187 280.771 22.848C280.941 22.6773 281.187 22.592 281.507 22.592C281.827 22.592 282.072 22.6773 282.243 22.848C282.424 23.0187 282.515 23.2693 282.515 23.6V31.072C282.515 31.5627 282.616 31.9253 282.819 32.16C283.032 32.3947 283.331 32.512 283.715 32.512C283.8 32.512 283.88 32.512 283.955 32.512C284.029 32.5013 284.104 32.4907 284.179 32.48C284.328 32.4587 284.429 32.5013 284.483 32.608C284.536 32.704 284.563 32.9067 284.563 33.216C284.563 33.4827 284.509 33.6907 284.403 33.84C284.296 33.9893 284.12 34.08 283.875 34.112C283.768 34.1227 283.656 34.1333 283.539 34.144C283.421 34.1547 283.304 34.16 283.187 34.16ZM289.274 34.16C288.463 34.16 287.759 33.9947 287.162 33.664C286.565 33.3333 286.101 32.864 285.77 32.256C285.439 31.6373 285.274 30.912 285.274 30.08C285.274 29.4507 285.365 28.8907 285.546 28.4C285.738 27.8987 286.01 27.472 286.362 27.12C286.714 26.7573 287.135 26.4853 287.626 26.304C288.117 26.112 288.666 26.016 289.274 26.016C290.085 26.016 290.789 26.1813 291.386 26.512C291.983 26.8427 292.447 27.312 292.778 27.92C293.109 28.528 293.274 29.248 293.274 30.08C293.274 30.7093 293.178 31.2747 292.986 31.776C292.805 32.2773 292.538 32.7093 292.186 33.072C291.834 33.424 291.413 33.696 290.922 33.888C290.431 34.0693 289.882 34.16 289.274 34.16ZM289.274 32.64C289.669 32.64 290.015 32.544 290.314 32.352C290.613 32.16 290.842 31.8773 291.002 31.504C291.173 31.12 291.258 30.6453 291.258 30.08C291.258 29.2267 291.077 28.592 290.714 28.176C290.351 27.7493 289.871 27.536 289.274 27.536C288.879 27.536 288.533 27.632 288.234 27.824C287.935 28.0053 287.701 28.288 287.53 28.672C287.37 29.0453 287.29 29.5147 287.29 30.08C287.29 30.9227 287.471 31.5627 287.834 32C288.197 32.4267 288.677 32.64 289.274 32.64ZM298.733 37.04C298.157 37.04 297.597 36.9867 297.053 36.88C296.519 36.7733 296.034 36.608 295.597 36.384C295.394 36.2773 295.255 36.1493 295.181 36C295.117 35.8507 295.095 35.696 295.117 35.536C295.149 35.3867 295.213 35.2533 295.309 35.136C295.415 35.0187 295.543 34.9387 295.693 34.896C295.842 34.8533 295.997 34.8747 296.157 34.96C296.626 35.1947 297.069 35.344 297.485 35.408C297.911 35.4827 298.274 35.52 298.573 35.52C299.287 35.52 299.821 35.344 300.173 34.992C300.535 34.6507 300.717 34.1387 300.717 33.456V32.016H300.861C300.701 32.56 300.365 32.9973 299.853 33.328C299.351 33.648 298.781 33.808 298.141 33.808C297.437 33.808 296.823 33.648 296.301 33.328C295.778 32.9973 295.373 32.5387 295.085 31.952C294.797 31.3653 294.653 30.6827 294.653 29.904C294.653 29.3173 294.733 28.7893 294.893 28.32C295.063 27.84 295.298 27.4293 295.597 27.088C295.906 26.7467 296.274 26.4853 296.701 26.304C297.138 26.112 297.618 26.016 298.141 26.016C298.802 26.016 299.378 26.1813 299.869 26.512C300.37 26.832 300.695 27.2587 300.845 27.792L300.685 28.192V27.056C300.685 26.7253 300.77 26.4747 300.941 26.304C301.122 26.1333 301.367 26.048 301.677 26.048C301.997 26.048 302.242 26.1333 302.413 26.304C302.583 26.4747 302.669 26.7253 302.669 27.056V33.216C302.669 34.4853 302.333 35.44 301.661 36.08C300.989 36.72 300.013 37.04 298.733 37.04ZM298.685 32.288C299.101 32.288 299.458 32.192 299.757 32C300.055 31.808 300.285 31.536 300.445 31.184C300.615 30.8213 300.701 30.3947 300.701 29.904C300.701 29.168 300.519 28.592 300.157 28.176C299.794 27.7493 299.303 27.536 298.685 27.536C298.269 27.536 297.911 27.632 297.613 27.824C297.314 28.016 297.079 28.288 296.909 28.64C296.749 28.992 296.669 29.4133 296.669 29.904C296.669 30.64 296.85 31.2213 297.213 31.648C297.575 32.0747 298.066 32.288 298.685 32.288Z" fill="#F7F3EB"/>
<path d="M342.526 34.16C341.352 34.16 340.344 33.9253 339.502 33.456C338.67 32.976 338.03 32.304 337.582 31.44C337.134 30.5653 336.91 29.536 336.91 28.352C336.91 27.4667 337.038 26.672 337.294 25.968C337.55 25.2533 337.918 24.6453 338.398 24.144C338.878 23.632 339.464 23.2427 340.158 22.976C340.862 22.6987 341.651 22.56 342.526 22.56C343.112 22.56 343.688 22.6347 344.254 22.784C344.819 22.9333 345.315 23.1467 345.742 23.424C345.966 23.5627 346.115 23.7333 346.19 23.936C346.264 24.128 346.28 24.32 346.238 24.512C346.195 24.6933 346.104 24.848 345.966 24.976C345.838 25.104 345.672 25.1787 345.47 25.2C345.278 25.2107 345.064 25.1413 344.83 24.992C344.499 24.7787 344.142 24.624 343.758 24.528C343.374 24.432 342.984 24.384 342.59 24.384C341.832 24.384 341.192 24.5387 340.67 24.848C340.147 25.1573 339.752 25.6053 339.486 26.192C339.219 26.7787 339.086 27.4987 339.086 28.352C339.086 29.1947 339.219 29.9147 339.486 30.512C339.752 31.1093 340.147 31.5627 340.67 31.872C341.192 32.1813 341.832 32.336 342.59 32.336C342.995 32.336 343.395 32.288 343.79 32.192C344.184 32.0853 344.558 31.9253 344.91 31.712C345.144 31.5733 345.352 31.5147 345.534 31.536C345.726 31.5467 345.886 31.6107 346.014 31.728C346.142 31.8453 346.227 31.9947 346.27 32.176C346.312 32.3467 346.302 32.528 346.238 32.72C346.174 32.9013 346.046 33.0613 345.854 33.2C345.427 33.5093 344.915 33.7493 344.318 33.92C343.731 34.08 343.134 34.16 342.526 34.16ZM351.126 34.16C350.315 34.16 349.611 33.9947 349.014 33.664C348.417 33.3333 347.953 32.864 347.622 32.256C347.291 31.6373 347.126 30.912 347.126 30.08C347.126 29.4507 347.217 28.8907 347.398 28.4C347.59 27.8987 347.862 27.472 348.214 27.12C348.566 26.7573 348.987 26.4853 349.478 26.304C349.969 26.112 350.518 26.016 351.126 26.016C351.937 26.016 352.641 26.1813 353.238 26.512C353.835 26.8427 354.299 27.312 354.63 27.92C354.961 28.528 355.126 29.248 355.126 30.08C355.126 30.7093 355.03 31.2747 354.838 31.776C354.657 32.2773 354.39 32.7093 354.038 33.072C353.686 33.424 353.265 33.696 352.774 33.888C352.283 34.0693 351.734 34.16 351.126 34.16ZM351.126 32.64C351.521 32.64 351.867 32.544 352.166 32.352C352.465 32.16 352.694 31.8773 352.854 31.504C353.025 31.12 353.11 30.6453 353.11 30.08C353.11 29.2267 352.929 28.592 352.566 28.176C352.203 27.7493 351.723 27.536 351.126 27.536C350.731 27.536 350.385 27.632 350.086 27.824C349.787 28.0053 349.553 28.288 349.382 28.672C349.222 29.0453 349.142 29.5147 349.142 30.08C349.142 30.9227 349.323 31.5627 349.686 32C350.049 32.4267 350.529 32.64 351.126 32.64ZM357.929 34.128C357.609 34.128 357.364 34.0427 357.193 33.872C357.022 33.6907 356.937 33.4347 356.937 33.104V27.056C356.937 26.7253 357.022 26.4747 357.193 26.304C357.364 26.1333 357.604 26.048 357.913 26.048C358.222 26.048 358.462 26.1333 358.633 26.304C358.804 26.4747 358.889 26.7253 358.889 27.056V28.144L358.713 27.744C358.948 27.1787 359.31 26.752 359.801 26.464C360.302 26.1653 360.868 26.016 361.497 26.016C362.126 26.016 362.644 26.1333 363.049 26.368C363.454 26.6027 363.758 26.96 363.961 27.44C364.164 27.9093 364.265 28.5067 364.265 29.232V33.104C364.265 33.4347 364.18 33.6907 364.009 33.872C363.838 34.0427 363.593 34.128 363.273 34.128C362.953 34.128 362.702 34.0427 362.521 33.872C362.35 33.6907 362.265 33.4347 362.265 33.104V29.328C362.265 28.72 362.148 28.2773 361.913 28C361.689 27.7227 361.337 27.584 360.857 27.584C360.27 27.584 359.801 27.7707 359.449 28.144C359.108 28.5067 358.937 28.992 358.937 29.6V33.104C358.937 33.7867 358.601 34.128 357.929 34.128ZM370.04 34.16C369.347 34.16 368.766 34.0427 368.296 33.808C367.838 33.5733 367.496 33.232 367.272 32.784C367.048 32.3253 366.936 31.76 366.936 31.088V27.68H366.104C365.848 27.68 365.651 27.616 365.512 27.488C365.374 27.3493 365.304 27.1627 365.304 26.928C365.304 26.6827 365.374 26.496 365.512 26.368C365.651 26.24 365.848 26.176 366.104 26.176H366.936V24.72C366.936 24.3893 367.022 24.1387 367.192 23.968C367.374 23.7973 367.624 23.712 367.944 23.712C368.264 23.712 368.51 23.7973 368.68 23.968C368.851 24.1387 368.936 24.3893 368.936 24.72V26.176H370.632C370.888 26.176 371.086 26.24 371.224 26.368C371.363 26.496 371.432 26.6827 371.432 26.928C371.432 27.1627 371.363 27.3493 371.224 27.488C371.086 27.616 370.888 27.68 370.632 27.68H368.936V30.976C368.936 31.488 369.048 31.872 369.272 32.128C369.496 32.384 369.859 32.512 370.36 32.512C370.542 32.512 370.702 32.496 370.84 32.464C370.979 32.432 371.102 32.4107 371.208 32.4C371.336 32.3893 371.443 32.432 371.528 32.528C371.614 32.6133 371.656 32.7947 371.656 33.072C371.656 33.2853 371.619 33.4773 371.544 33.648C371.48 33.808 371.358 33.92 371.176 33.984C371.038 34.0267 370.856 34.064 370.632 34.096C370.408 34.1387 370.211 34.16 370.04 34.16ZM375.333 34.16C374.768 34.16 374.261 34.0533 373.813 33.84C373.376 33.616 373.029 33.3173 372.773 32.944C372.528 32.5707 372.405 32.1493 372.405 31.68C372.405 31.104 372.554 30.6507 372.853 30.32C373.152 29.9787 373.637 29.7333 374.309 29.584C374.981 29.4347 375.882 29.36 377.013 29.36H377.813V30.512H377.029C376.368 30.512 375.84 30.544 375.445 30.608C375.05 30.672 374.768 30.784 374.597 30.944C374.437 31.0933 374.357 31.3067 374.357 31.584C374.357 31.936 374.48 32.224 374.725 32.448C374.97 32.672 375.312 32.784 375.749 32.784C376.101 32.784 376.41 32.704 376.677 32.544C376.954 32.3733 377.173 32.144 377.333 31.856C377.493 31.568 377.573 31.2373 377.573 30.864V29.024C377.573 28.4907 377.456 28.1067 377.221 27.872C376.986 27.6373 376.592 27.52 376.037 27.52C375.728 27.52 375.392 27.5573 375.029 27.632C374.677 27.7067 374.304 27.8347 373.909 28.016C373.706 28.112 373.525 28.1387 373.365 28.096C373.216 28.0533 373.098 27.968 373.013 27.84C372.928 27.7013 372.885 27.552 372.885 27.392C372.885 27.232 372.928 27.0773 373.013 26.928C373.098 26.768 373.242 26.6507 373.445 26.576C373.936 26.3733 374.405 26.2293 374.853 26.144C375.312 26.0587 375.728 26.016 376.101 26.016C376.869 26.016 377.498 26.1333 377.989 26.368C378.49 26.6027 378.864 26.96 379.109 27.44C379.354 27.9093 379.477 28.5173 379.477 29.264V33.104C379.477 33.4347 379.397 33.6907 379.237 33.872C379.077 34.0427 378.848 34.128 378.549 34.128C378.25 34.128 378.016 34.0427 377.845 33.872C377.685 33.6907 377.605 33.4347 377.605 33.104V32.336H377.733C377.658 32.7093 377.509 33.0347 377.285 33.312C377.072 33.5787 376.8 33.7867 376.469 33.936C376.138 34.0853 375.76 34.16 375.333 34.16ZM385.283 34.16C384.462 34.16 383.747 33.9947 383.139 33.664C382.531 33.3227 382.062 32.8427 381.731 32.224C381.4 31.6053 381.235 30.88 381.235 30.048C381.235 29.4187 381.326 28.8587 381.507 28.368C381.699 27.8667 381.971 27.4453 382.323 27.104C382.675 26.752 383.102 26.4853 383.603 26.304C384.104 26.112 384.664 26.016 385.283 26.016C385.635 26.016 386.014 26.064 386.419 26.16C386.835 26.256 387.224 26.416 387.587 26.64C387.758 26.7467 387.87 26.8747 387.923 27.024C387.976 27.1733 387.987 27.328 387.955 27.488C387.923 27.6373 387.854 27.7707 387.747 27.888C387.651 27.9947 387.528 28.064 387.379 28.096C387.23 28.1173 387.064 28.08 386.883 27.984C386.648 27.8453 386.408 27.744 386.163 27.68C385.918 27.6053 385.683 27.568 385.459 27.568C385.107 27.568 384.798 27.6267 384.531 27.744C384.264 27.8507 384.035 28.0107 383.843 28.224C383.662 28.4267 383.523 28.6827 383.427 28.992C383.331 29.3013 383.283 29.6587 383.283 30.064C383.283 30.8533 383.47 31.4773 383.843 31.936C384.227 32.384 384.766 32.608 385.459 32.608C385.683 32.608 385.912 32.576 386.147 32.512C386.392 32.448 386.638 32.3467 386.883 32.208C387.064 32.112 387.224 32.08 387.363 32.112C387.512 32.144 387.635 32.2187 387.731 32.336C387.827 32.4427 387.886 32.576 387.907 32.736C387.928 32.8853 387.907 33.0347 387.843 33.184C387.79 33.3333 387.683 33.456 387.523 33.552C387.171 33.7653 386.798 33.92 386.403 34.016C386.008 34.112 385.635 34.16 385.283 34.16ZM392.989 34.16C392.296 34.16 391.714 34.0427 391.245 33.808C390.786 33.5733 390.445 33.232 390.221 32.784C389.997 32.3253 389.885 31.76 389.885 31.088V27.68H389.053C388.797 27.68 388.6 27.616 388.461 27.488C388.322 27.3493 388.253 27.1627 388.253 26.928C388.253 26.6827 388.322 26.496 388.461 26.368C388.6 26.24 388.797 26.176 389.053 26.176H389.885V24.72C389.885 24.3893 389.97 24.1387 390.141 23.968C390.322 23.7973 390.573 23.712 390.893 23.712C391.213 23.712 391.458 23.7973 391.629 23.968C391.8 24.1387 391.885 24.3893 391.885 24.72V26.176H393.581C393.837 26.176 394.034 26.24 394.173 26.368C394.312 26.496 394.381 26.6827 394.381 26.928C394.381 27.1627 394.312 27.3493 394.173 27.488C394.034 27.616 393.837 27.68 393.581 27.68H391.885V30.976C391.885 31.488 391.997 31.872 392.221 32.128C392.445 32.384 392.808 32.512 393.309 32.512C393.49 32.512 393.65 32.496 393.789 32.464C393.928 32.432 394.05 32.4107 394.157 32.4C394.285 32.3893 394.392 32.432 394.477 32.528C394.562 32.6133 394.605 32.7947 394.605 33.072C394.605 33.2853 394.568 33.4773 394.493 33.648C394.429 33.808 394.306 33.92 394.125 33.984C393.986 34.0267 393.805 34.064 393.581 34.096C393.357 34.1387 393.16 34.16 392.989 34.16ZM405.089 34.16C404.311 34.16 403.623 34.0587 403.025 33.856C402.439 33.6533 401.943 33.3547 401.537 32.96C401.132 32.5547 400.828 32.0533 400.625 31.456C400.423 30.8587 400.321 30.1653 400.321 29.376V23.632C400.321 23.28 400.407 23.0187 400.577 22.848C400.759 22.6773 401.015 22.592 401.345 22.592C401.676 22.592 401.927 22.6773 402.097 22.848C402.279 23.0187 402.369 23.28 402.369 23.632V29.36C402.369 30.3733 402.599 31.136 403.057 31.648C403.527 32.1493 404.204 32.4 405.089 32.4C405.975 32.4 406.647 32.1493 407.105 31.648C407.564 31.136 407.793 30.3733 407.793 29.36V23.632C407.793 23.28 407.879 23.0187 408.049 22.848C408.231 22.6773 408.487 22.592 408.817 22.592C409.137 22.592 409.383 22.6773 409.553 22.848C409.735 23.0187 409.825 23.28 409.825 23.632V29.376C409.825 30.4213 409.644 31.3013 409.281 32.016C408.929 32.7307 408.401 33.2693 407.697 33.632C406.993 33.984 406.124 34.16 405.089 34.16ZM415.046 34.16C414.587 34.16 414.102 34.112 413.59 34.016C413.078 33.92 412.619 33.7547 412.214 33.52C412.043 33.4133 411.921 33.2907 411.846 33.152C411.782 33.0027 411.755 32.8587 411.766 32.72C411.787 32.5707 411.841 32.4427 411.926 32.336C412.022 32.2293 412.139 32.16 412.278 32.128C412.427 32.096 412.587 32.1227 412.758 32.208C413.185 32.4107 413.585 32.5547 413.958 32.64C414.331 32.7147 414.699 32.752 415.062 32.752C415.574 32.752 415.953 32.6667 416.198 32.496C416.454 32.3147 416.582 32.08 416.582 31.792C416.582 31.5467 416.497 31.36 416.326 31.232C416.166 31.0933 415.921 30.992 415.59 30.928L413.99 30.624C413.329 30.496 412.822 30.256 412.47 29.904C412.129 29.5413 411.958 29.0773 411.958 28.512C411.958 28 412.097 27.5573 412.374 27.184C412.662 26.8107 413.057 26.5227 413.558 26.32C414.059 26.1173 414.635 26.016 415.286 26.016C415.755 26.016 416.193 26.0693 416.598 26.176C417.014 26.272 417.414 26.4267 417.798 26.64C417.958 26.7253 418.065 26.8373 418.118 26.976C418.182 27.1147 418.198 27.2587 418.166 27.408C418.134 27.5467 418.07 27.6747 417.974 27.792C417.878 27.8987 417.755 27.968 417.606 28C417.467 28.0213 417.307 27.9893 417.126 27.904C416.795 27.7333 416.475 27.6107 416.166 27.536C415.867 27.4613 415.579 27.424 415.302 27.424C414.779 27.424 414.39 27.5147 414.134 27.696C413.889 27.8773 413.766 28.1173 413.766 28.416C413.766 28.64 413.841 28.8267 413.99 28.976C414.139 29.1253 414.369 29.2267 414.678 29.28L416.278 29.584C416.971 29.712 417.494 29.9467 417.846 30.288C418.209 30.6293 418.39 31.088 418.39 31.664C418.39 32.4427 418.086 33.056 417.478 33.504C416.87 33.9413 416.059 34.16 415.046 34.16Z" fill="#F7F3EB"/>
</svg>
